<?xml version="1.0"?>
<!--Icons from directory ""-->
<svg xmlns="http://www.w3.org/2000/svg" width="42" height="84" viewBox="0 0 42 84"><svg xmlns:xlink="http://www.w3.org/1999/xlink" id="1" xml:space="preserve" viewBox="-5 -5 30 29" version="1.1" y="0" x="0px" enable-background="new 0 0 20 19" width="42" height="42"><path d="m16.5 6.6h-0.5l0.3-0.3c0.9-1 0.9-2.5-0.1-3.4l-0.1-0.1c-0.9-0.9-2.4-1-3.4-0.1l-0.3 0.3v-0.5c0-1.3-1.1-2.4-2.5-2.4h-0.2c-1.3 0-2.4 1-2.5 2.4v0.5c0-0.1-0.2-0.2-0.3-0.3-0.9-0.9-2.4-0.9-3.4 0.1l-0.1 0.1c-0.9 0.9-1 2.4-0.1 3.4l0.3 0.3h-0.5c-1.3 0-2.4 1.1-2.4 2.5v0.2c0 1.3 1 2.4 2.4 2.5h0.5l-0.3 0.3c-0.9 1-0.9 2.5 0.1 3.4l0.1 0.1c0.9 0.9 2.4 1 3.4 0.1l0.3-0.3v0.5c0 1.3 1.1 2.4 2.5 2.4h0.2c1.3 0 2.4-1 2.5-2.4v-0.5l0.3 0.3c1 0.9 2.5 0.9 3.4-0.1l0.1-0.1c0.9-0.9 1-2.4 0.1-3.4l-0.3-0.3h0.5c1.3 0 2.4-1.1 2.4-2.5v-0.2c-0.1-1.3-1.1-2.4-2.4-2.5zm-6.8 6.8c-2.3 0-4.2-1.9-4.2-4.2s1.9-4.2 4.2-4.2 4.2 1.9 4.2 4.2c0 2.3-1.9 4.2-4.2 4.2z" fill="#222C58"/></svg><svg xmlns:xlink="http://www.w3.org/1999/xlink" id="2" xml:space="preserve" viewBox="-5 -5 30 29" version="1.1" y="42" x="0px" enable-background="new 0 0 20 19" width="42" height="42"><path d="m16.5 6.6h-0.5l0.3-0.3c0.9-1 0.9-2.5-0.1-3.4l-0.1-0.1c-0.9-0.9-2.4-1-3.4-0.1l-0.3 0.3v-0.5c0-1.3-1.1-2.4-2.5-2.4h-0.2c-1.3 0-2.4 1-2.5 2.4v0.5c0-0.1-0.2-0.2-0.3-0.3-0.9-0.9-2.4-0.9-3.4 0.1l-0.1 0.1c-0.9 0.9-1 2.4-0.1 3.4l0.3 0.3h-0.5c-1.3 0-2.4 1.1-2.4 2.5v0.2c0 1.3 1 2.4 2.4 2.5h0.5l-0.3 0.3c-0.9 1-0.9 2.5 0.1 3.4l0.1 0.1c0.9 0.9 2.4 1 3.4 0.1l0.3-0.3v0.5c0 1.3 1.1 2.4 2.5 2.4h0.2c1.3 0 2.4-1 2.5-2.4v-0.5l0.3 0.3c1 0.9 2.5 0.9 3.4-0.1l0.1-0.1c0.9-0.9 1-2.4 0.1-3.4l-0.3-0.3h0.5c1.3 0 2.4-1.1 2.4-2.5v-0.2c-0.1-1.3-1.1-2.4-2.4-2.5zm-6.8 6.8c-2.3 0-4.2-1.9-4.2-4.2s1.9-4.2 4.2-4.2 4.2 1.9 4.2 4.2c0 2.3-1.9 4.2-4.2 4.2z" fill="#EFC332"/></svg></svg>
