<?xml version="1.0"?>
<!--Icons from directory ""-->
<svg xmlns="http://www.w3.org/2000/svg" width="72" height="144" viewBox="0 0 72 144"><svg xmlns:xlink="http://www.w3.org/1999/xlink" id="5" xml:space="preserve" viewBox="-20 -20 55 55" version="1.1" y="0" x="0px" enable-background="new 0 0 15 15" width="72" height="72"><path d="m14.3 0.7c-0.1-0.7-1-1.1-1.5-0.6l-1.8 1.6c-1.3-0.9-3-1.4-4.9-1.1-2.9 0.5-5.2 2.9-5.5 5.8-0.4 4 2.7 7.4 6.6 7.4 1.9 0 3.7-0.8 4.9-2.1 0.5-0.6 0.3-1.5-0.3-1.8-0.5-0.3-1.1-0.2-1.5 0.2-0.9 1-2.3 1.5-3.8 1.3-1.7-0.4-3.1-1.7-3.4-3.4-0.6-2.7 1.5-5.1 4.1-5.1 0.7 0 1.4 0.2 2 0.5l-1.3 1.3c-0.6 0.5-0.3 1.5 0.5 1.6 1.7 0.3 3.5 0.4 5.2 0.3 0.5 0 0.9-0.4 0.9-0.9 0-1.7-0.1-3.3-0.2-5z" fill="#8F8F8F"/></svg><svg xmlns:xlink="http://www.w3.org/1999/xlink" id="6" xml:space="preserve" viewBox="-20 -20 55 55" version="1.1" y="72" x="0px" enable-background="new 0 0 15 15" width="72" height="72"><path d="m14.3 0.7c-0.1-0.7-1-1.1-1.5-0.6l-1.8 1.6c-1.3-0.9-3-1.4-4.9-1.1-2.9 0.5-5.2 2.9-5.5 5.8-0.4 4 2.7 7.4 6.6 7.4 1.9 0 3.7-0.8 4.9-2.1 0.5-0.6 0.3-1.5-0.3-1.8-0.5-0.3-1.1-0.2-1.5 0.2-0.9 1-2.3 1.5-3.8 1.3-1.7-0.4-3.1-1.7-3.4-3.4-0.6-2.7 1.5-5.1 4.1-5.1 0.7 0 1.4 0.2 2 0.5l-1.3 1.3c-0.6 0.5-0.3 1.5 0.5 1.6 1.7 0.3 3.5 0.4 5.2 0.3 0.5 0 0.9-0.4 0.9-0.9 0-1.7-0.1-3.3-0.2-5z" fill="#EFC332"/></svg></svg>
