<svg xmlns="http://www.w3.org/2000/svg" width="32" height="352" viewBox="0 0 32 352"><svg xmlns:xlink="http://www.w3.org/1999/xlink" viewBox="0 0 15 9" width="32" height="32"><path d="M13.9.3c-.5-.5-1.2-.5-1.7 0C10.6 1.8 9 3.4 7.4 5 5.9 3.4 4.3 1.8 2.7.3 2.2-.2 1.5-.1 1 .3.5.8.5 1.5 1 2c1.8 2 3.7 3.8 5.6 5.6.2.3.5.4.8.4s.6-.1.9-.3C10.2 5.8 12.1 4 13.9 2c.5-.5.4-1.2 0-1.7z" fill="#031834"/></svg><svg xmlns:xlink="http://www.w3.org/1999/xlink" viewBox="0 0 15 10" y="32" width="32" height="32"><path d="M13.9 1.3c-.5-.5-1.2-.5-1.7 0C10.5 2.8 9 4.4 7.4 6 5.9 4.4 4.3 2.8 2.7 1.3 2.2.8 1.5.9 1 1.3.5 1.8.5 2.6 1 3c1.8 2 3.6 3.8 5.6 5.6.2.3.5.4.8.4s.6-.1.9-.3C10.2 6.8 12.1 5 13.9 3c.4-.4.4-1.2 0-1.7z" fill="#fff"/></svg><svg xmlns:xlink="http://www.w3.org/1999/xlink" viewBox="0 0 15 9" y="64" width="32" height="32"><path d="M13.8.6c-.5-.5-1.2-.5-1.7 0-1.6 1.5-3.2 3.1-4.7 4.7C5.8 3.7 4.3 2.1 2.7.6 2.2.1 1.5.2 1 .6c-.5.5-.5 1.2 0 1.7 1.8 1.9 3.7 3.8 5.6 5.6.2.2.6.3.9.3s.6-.1.9-.3c1.9-1.8 3.8-3.7 5.6-5.6.3-.5.3-1.2-.2-1.7z" fill="#FFC50F"/></svg><svg xmlns:xlink="http://www.w3.org/1999/xlink" viewBox="0 0 15 9" y="96" width="32" height="32"><path d="M1 7.9c.5.5 1.2.5 1.7 0 1.6-1.5 3.2-3.1 4.7-4.7 1.5 1.6 3.1 3.2 4.7 4.7.5.5 1.2.4 1.7 0 .5-.5.5-1.2 0-1.7C12 4.3 10.1 2.4 8.2.6 8.1.3 7.8.2 7.4.2c-.3 0-.6.1-.9.3C4.7 2.4 2.8 4.2 1 6.2c-.5.4-.5 1.2 0 1.7z" fill="#031834"/></svg><svg xmlns:xlink="http://www.w3.org/1999/xlink" viewBox="0 0 25 25" y="128" width="32" height="32"><circle cy="12" cx="12.4" r="12" fill="#162859"/><path d="M18.7 5.6c-.8-.8-2-.8-2.8 0l-9.3 9.3c-.2.2-.3.4-.3.7V17c0 .6.4 1 1 1h1.4c.3 0 .5-.1.7-.3l9.3-9.3c.8-.8.8-2 0-2.8z" fill="#FFC50F"/></svg><svg xmlns:xlink="http://www.w3.org/1999/xlink" viewBox="0 0 37 37" y="160" width="32" height="32"><circle cy="18" cx="18.4" r="18" fill="#FFC327"/><path d="M23.7 11.1l-8.4 8.1L13 17c-1.2-1.1-3.1-1.2-4.2-.1-1.2 1.1-1.1 3 .1 4.1l4.5 4.4c1.2 1.1 3.1 1.2 4.2.1 3.6-3.3 7.1-6.7 10.5-10.2 1.1-1.2 1.1-3-.1-4.1s-3.1-1.2-4.3-.1z" fill="#162859"/></svg><svg xmlns:xlink="http://www.w3.org/1999/xlink" viewBox="0 0 37 37" y="192" width="32" height="32"><circle cy="18" cx="18.4" r="18" fill="#162859"/><path d="M23.7 11.1l-8.4 8.1L13 17c-1.2-1.1-3.1-1.2-4.2-.1-1.2 1.1-1.1 3 .1 4.1l4.5 4.4c1.2 1.1 3.1 1.2 4.2.1 3.6-3.3 7.1-6.7 10.5-10.2 1.1-1.2 1.1-3-.1-4.1s-3.1-1.2-4.3-.1z" fill="#FFC327"/></svg><svg xmlns:xlink="http://www.w3.org/1999/xlink" viewBox="0 0 8 5" y="224" width="32" height="32"><path d="M.7 1.3c.9 1.1 2 2 3 3 .2.2.5.2.7 0 1-1 2.1-1.9 3-3 .3-.3 0-.8-.4-.8H1.1C.7.4.5.9.7 1.3z" fill="#031834"/></svg><svg xmlns:xlink="http://www.w3.org/1999/xlink" viewBox="0 0 8 5" y="256" width="32" height="32"><path d="M.3 1.3c.9 1.1 2 2 3 3 .2.2.5.2.7 0 1-1 2.1-1.9 3-3 .3-.3 0-.8-.4-.8H.7C.3.4 0 .9.3 1.3z" fill="#919191"/></svg><svg xmlns:xlink="http://www.w3.org/1999/xlink" viewBox="0 0 8 5" y="288" width="32" height="32"><path d="M7.5 3.6c-.9-1.1-2-2-3-3-.2-.2-.5-.2-.7 0-1 1-2.1 1.9-3 3-.3.3 0 .8.4.8h6c.4 0 .6-.5.3-.8z" fill="#031834"/></svg><svg xmlns:xlink="http://www.w3.org/1999/xlink" viewBox="0 0 8 5" y="320" width="32" height="32"><path d="M7.6 3.7c-.9-1.1-2-2-3-3-.2-.2-.6-.2-.8 0-1 1-2.1 1.9-3 3-.3.3 0 .8.4.8h6c.4 0 .7-.5.4-.8z" fill="#919191"/></svg></svg>