<svg xmlns="http://www.w3.org/2000/svg" viewBox="0 0 25 25"><radialGradient id="a" cx="12.721" cy="12.856" r="26.611" gradientUnits="userSpaceOnUse"><stop offset="0" stop-color="#162859"/><stop offset="1" stop-color="#131746"/></radialGradient><circle fill="url(#a)" cx="12.7" cy="12.9" r="12"/><path d="M12.1 15c-1.6-1.6-2.5-2.6-3.8-4.1-.5-.6-.1-1.5.7-1.5h1.4l.8-2.9c.2-.6.6-1.1 1.2-1.2.8-.2 1.6.3 1.8 1.1l.9 3h1.4c.8 0 1.2.9.7 1.5-1.3 1.5-2.2 2.6-3.8 4.1-.4.3-1 .3-1.3 0zm5.3 2H8.1c-.6 0-1.2.5-1.2 1.2 0 .6.5 1.2 1.2 1.2h9.3c.6 0 1.2-.5 1.2-1.2S18 17 17.4 17z" fill="#FFC50F"/></svg>