<svg xmlns="http://www.w3.org/2000/svg" viewBox="0 0 31 31"><radialGradient id="a" cx="15.426" cy="15.813" r="33.181" gradientUnits="userSpaceOnUse"><stop offset="0" stop-color="#162859"/><stop offset="1" stop-color="#131746"/></radialGradient><circle fill="url(#a)" cx="15.4" cy="15.8" r="15"/><path d="M14.6 6.3c-2 2-3.2 3.4-4.9 5.3-.6.7-.1 1.9.8 1.9h1.8l1.1 3.7c.2.7.8 1.3 1.6 1.5 1 .2 2-.4 2.3-1.4l1.1-3.8h1.8c1 0 1.5-1.1.8-1.9-1.7-1.9-2.9-3.3-4.9-5.3-.3-.4-1-.4-1.5 0zm6.8 14.6h-12c-.8 0-1.5.7-1.5 1.5s.7 1.5 1.5 1.5h12c.8 0 1.5-.7 1.5-1.5s-.7-1.5-1.5-1.5z" fill="#FFC50F"/></svg>