<?xml version="1.0" encoding="utf-8"?>
<!-- Generator: Adobe Illustrator 17.1.0, SVG Export Plug-In . SVG Version: 6.00 Build 0)  -->
<!DOCTYPE svg PUBLIC "-//W3C//DTD SVG 1.1//EN" "http://www.w3.org/Graphics/SVG/1.1/DTD/svg11.dtd">
<svg version="1.1" id="Layer_1" xmlns="http://www.w3.org/2000/svg" xmlns:xlink="http://www.w3.org/1999/xlink" x="0px" y="0px"
	 viewBox="0 0 139 34" enable-background="new 0 0 139 34" xml:space="preserve">
<g>
	<path fill="#FFFFFF" stroke="#222C58" stroke-width="3" stroke-miterlimit="10" d="M121.8,2.1l-104.6,0c-8.3,0-15,6.7-15,15v0
		c0,8.3,6.7,15,15,15h104.6c8.3,0,15-6.7,15-15v0C136.8,8.8,130.1,2.1,121.8,2.1z"/>
	<g>
		<circle fill="#EFC332" stroke="#222C58" stroke-width="3" stroke-miterlimit="10" cx="17.2" cy="17.1" r="15"/>
		<linearGradient id="SVGID_1_" gradientUnits="userSpaceOnUse" x1="9.6094" y1="17.449" x2="24.6094" y2="17.449">
			<stop  offset="4.206731e-004" style="stop-color:#222C58"/>
			<stop  offset="1" style="stop-color:#1B1D46"/>
		</linearGradient>
		<path fill="url(#SVGID_1_)" d="M22.6,15.3c-1.1,0-2.2-0.1-3.3-0.1c0-1.1,0-2.2-0.1-3.3c0-1.1-0.9-2-2.1-2H17c-1.1,0-2,0.9-2.1,2
			c0,1.1-0.1,2.2-0.1,3.3c-1.1,0-2.2,0-3.3,0.1c-1.1,0-2,0.9-2,2.1v0.1c0,1.1,0.9,2,2,2.1c1.1,0,2.2,0.1,3.3,0.1
			c0,1.1,0,2.2,0.1,3.3c0,1.1,0.9,2,2.1,2h0.1c1.1,0,2-0.9,2.1-2c0-1.1,0.1-2.2,0.1-3.3c1.1,0,2.2,0,3.3-0.1c1.1,0,2-0.9,2-2.1v-0.1
			C24.6,16.3,23.7,15.4,22.6,15.3z"/>
	</g>
	<g>
		<circle fill="#EFC332" stroke="#222C58" stroke-width="3" stroke-miterlimit="10" cx="122" cy="16.8" r="15"/>
		<linearGradient id="SVGID_2_" gradientUnits="userSpaceOnUse" x1="114.4738" y1="17.1145" x2="129.4738" y2="17.1145">
			<stop  offset="4.206731e-004" style="stop-color:#222C58"/>
			<stop  offset="1" style="stop-color:#1B1D46"/>
		</linearGradient>
		<path fill="url(#SVGID_2_)" d="M116.2,18.9c3.8,0.1,7.7,0.1,11.5,0c1,0,1.7-0.8,1.7-1.8v0c0-1-0.8-1.8-1.7-1.8
			c-3.8-0.1-7.7-0.1-11.5,0c-1,0-1.7,0.8-1.7,1.8v0C114.5,18.1,115.2,18.9,116.2,18.9z"/>
	</g>
</g>
</svg>
