<?xml version="1.0" encoding="utf-8"?>
<!-- Generator: Adobe Illustrator 17.1.0, SVG Export Plug-In . SVG Version: 6.00 Build 0)  -->
<!DOCTYPE svg PUBLIC "-//W3C//DTD SVG 1.1//EN" "http://www.w3.org/Graphics/SVG/1.1/DTD/svg11.dtd">
<svg version="1.1" id="Layer_1" xmlns="http://www.w3.org/2000/svg" xmlns:xlink="http://www.w3.org/1999/xlink" x="0px" y="0px"
	 viewBox="0 0 110 33" enable-background="new 0 0 110 33" xml:space="preserve">
<g>
	<path fill="#FFFFFF" stroke="#162859" stroke-width="3" stroke-miterlimit="10" d="M93.2,1.5l-76,0c-8.3,0-15,6.7-15,15v0
		c0,8.3,6.7,15,15,15h76c8.3,0,15-6.7,15-15v0C108.2,8.2,101.4,1.5,93.2,1.5z"/>
	<g>
		<circle fill="#FFC50F" stroke="#162859" stroke-width="3" stroke-miterlimit="10" cx="17.2" cy="16.5" r="15"/>
		<linearGradient id="SVGID_1_" gradientUnits="userSpaceOnUse" x1="9.5342" y1="16.8518" x2="24.5342" y2="16.8518">
			<stop  offset="4.206731e-004" style="stop-color:#162859"/>
			<stop  offset="1" style="stop-color:#131746"/>
		</linearGradient>
		<path fill="url(#SVGID_1_)" d="M22.6,14.7c-1.1,0-2.2-0.1-3.3-0.1c0-1.1,0-2.2-0.1-3.3c0-1.1-0.9-2-2.1-2H17c-1.1,0-2,0.9-2.1,2
			c0,1.1-0.1,2.2-0.1,3.3c-1.1,0-2.2,0-3.3,0.1c-1.1,0-2,0.9-2,2.1v0.1c0,1.1,0.9,2,2,2.1c1.1,0,2.2,0.1,3.3,0.1
			c0,1.1,0,2.2,0.1,3.3c0,1.1,0.9,2,2.1,2h0.1c1.1,0,2-0.9,2.1-2c0-1.1,0.1-2.2,0.1-3.3c1.1,0,2.2,0,3.3-0.1c1.1,0,2-0.9,2-2.1v-0.1
			C24.5,15.7,23.7,14.8,22.6,14.7z"/>
	</g>
	<g>
		<circle fill="#FFC50F" stroke="#162859" stroke-width="3" stroke-miterlimit="10" cx="93.2" cy="16.2" r="15"/>
		<linearGradient id="SVGID_2_" gradientUnits="userSpaceOnUse" x1="85.6529" y1="16.5172" x2="100.6529" y2="16.5172">
			<stop  offset="4.206731e-004" style="stop-color:#162859"/>
			<stop  offset="1" style="stop-color:#131746"/>
		</linearGradient>
		<path fill="url(#SVGID_2_)" d="M87.4,18.3c3.8,0.1,7.7,0.1,11.5,0c1,0,1.7-0.8,1.7-1.8v0c0-1-0.8-1.8-1.7-1.8
			c-3.8-0.1-7.7-0.1-11.5,0c-1,0-1.7,0.8-1.7,1.8v0C85.7,17.5,86.4,18.3,87.4,18.3z"/>
	</g>
</g>
</svg>
